HIERARCHY
ROOT Hips
{
	OFFSET 0.00000 0.00000 0.00000
	CHANNELS 6 Xposition Yposition Zposition Zrotation Yrotation Xrotation 
	JOINT LHipJoint
	{
		OFFSET 0 0 0
		CHANNELS 3 Zrotation Yrotation Xrotation
		JOINT LeftHip
		{
			OFFSET 1.75344 -1.53157 0.77399
			CHANNELS 3 Zrotation Yrotation Xrotation
			JOINT LeftKnee
			{
				OFFSET 2.25415 -6.19323 0.00000
				CHANNELS 3 Zrotation Yrotation Xrotation
				JOINT LeftAnkle
				{
					OFFSET 2.30342 -6.32861 0.00000
					CHANNELS 3 Zrotation Yrotation Xrotation
					JOINT LeftToe
					{
						OFFSET 0.10958 -0.30108 1.49206
						CHANNELS 3 Zrotation Yrotation Xrotation
						End Site
						{
							OFFSET 0.00000 -0.00000 0.77783
						}
					}
				}
			}
		}
	}
	JOINT RHipJoint
	{
		OFFSET 0 0 0
		CHANNELS 3 Zrotation Yrotation Xrotation
		JOINT RightHip
		{
			OFFSET -1.81912 -1.53156 0.77399
			CHANNELS 3 Zrotation Yrotation Xrotation
			JOINT RightKnee
			{
				OFFSET -2.22882 -6.12365 0.00000
				CHANNELS 3 Zrotation Yrotation Xrotation
				JOINT RightAnkle
				{
					OFFSET -2.21943 -6.09785 0.00000
					CHANNELS 3 Zrotation Yrotation Xrotation
					JOINT RightToe
					{
						OFFSET -0.18931 -0.52012 1.59379
						CHANNELS 3 Zrotation Yrotation Xrotation
						End Site
						{
							OFFSET -0.00000 -0.00000 0.84686
						}
					}
				}
			}
		}
	}
	JOINT lowerback
	{
		OFFSET 0 0 0
		CHANNELS 3 Zrotation Yrotation Xrotation
		JOINT Chest
		{
			OFFSET -0.00200 1.66634 -0.14248
			CHANNELS 3 Zrotation Yrotation Xrotation
			JOINT Chest2
			{
				OFFSET -0.00875 1.64542 0.09514
				CHANNELS 3 Zrotation Yrotation Xrotation
				JOINT lowerneck
				{
					OFFSET 0 0 0
					CHANNELS 3 Zrotation Yrotation Xrotation
					JOINT Neck
					{
						OFFSET 0.02257 1.59605 0.00839
						CHANNELS 3 Zrotation Yrotation Xrotation
						JOINT Head
						{
							OFFSET -0.10214 1.57530 -0.23335
							CHANNELS 3 Zrotation Yrotation Xrotation
							End Site
							{
								OFFSET -0.03588 1.60717 -0.08062
							}
						}
					}
				}
				JOINT LeftCollar
				{
					OFFSET 0 0 0
					CHANNELS 3 Zrotation Yrotation Xrotation
					JOINT LeftShoulder
					{
						OFFSET 2.54983 1.10186 0.40078
CHANNELS 3 Zrotation Xrotation Yrotation
						JOINT LeftElbow
						{
OFFSET 0 -4.288400 0.000000
CHANNELS 3 Zrotation Xrotation Yrotation
							JOINT LeftWrist
							{
OFFSET 0 -3.065520 -0.000000
CHANNELS 3 Zrotation Xrotation Yrotation
								JOINT lhand
								{
									OFFSET 0 0 0
CHANNELS 3 Zrotation Xrotation Yrotation
									JOINT LFingers
									{
OFFSET 0 -0.753040 0.000000
CHANNELS 3 Zrotation Xrotation Yrotation
										End Site
										{
OFFSET 0 -0.607120 0.000000
										}
									}
								}
								JOINT LThumb
								{
OFFSET 0 0.000000 0.000000
CHANNELS 3 Zrotation Xrotation Yrotation
									End Site
									{
OFFSET 0 -0.616390 0.616390
									}
								}
							}
						}
					}
				}
				JOINT RightCollar
				{
					OFFSET 0 0 0
					CHANNELS 3 Zrotation Yrotation Xrotation
					JOINT RightShoulder
					{
						OFFSET -2.60909 1.35448 0.21802
CHANNELS 3 Zrotation Xrotation Yrotation
						JOINT RightElbow
						{
OFFSET 0 -4.521720 -0.000000
CHANNELS 3 Zrotation Xrotation Yrotation
							JOINT RightWrist
							{
OFFSET 0 -2.891400 0.000000
CHANNELS 3 Zrotation Xrotation Yrotation
								JOINT rhand
								{
									OFFSET 0 0 0
CHANNELS 3 Zrotation Xrotation Yrotation
									JOINT RFingers
									{
OFFSET 0 -0.680540 0.000000
CHANNELS 3 Zrotation Xrotation Yrotation
										End Site
										{
OFFSET 0 -0.548670 0.000000
										}
									}
								}
								JOINT RThumb
								{
OFFSET 0 0.000000 0.000000
CHANNELS 3 Zrotation Xrotation Yrotation
									End Site
									{
OFFSET 0 -0.557050 0.557050
									}
								}
							}
						}
					}
				}
			}
		}
	}
}
MOTION
Frames: 10
Frame Time: 0.008333333333333333
8.970442 14.575781 23.176916 -177.016008 5.101089 191.120613 0.000000 0.000000 0.000000 -16.837988 -7.535485 -38.249721 8.893921 16.738537 55.721842 3.101605 5.097873 -35.338469 1.169577 -6.864822 -19.315425 0.000000 0.000000 0.000000 24.786248 12.626498 -30.935596 -6.677943 -15.054172 47.644727 -1.959792 -8.987468 -30.941219 -0.394683 4.033022 -11.169833 2.136605 -0.975797 17.037908 1.789794 -0.571551 -2.542388 0.920505 -0.315351 -12.450353 -2.471418 0.338048 -11.354067 4.069874 1.915410 -8.901977 1.738355 1.459770 -0.960528 0.000000 0.000000 0.000000 14.195664 3.681564 -8.461373 23.213007 -34.320408 7.258278 -1.365516 5.287579 30.972884 0.000000 0.000000 0.000000 -7.125000 0.000000 0.000000 -18.532986 0.360425 -19.465353 0.000000 0.000000 0.000000 -17.264412 0.654881 -4.086459 -21.617910 -32.542538 -6.379123 -8.782897 8.741422 54.595902 0.000000 0.000000 0.000000 7.125000 0.000000 0.000000 73.971182 74.910433 -58.454403
8.966877 14.531523 23.182322 -176.958529 4.857023 191.440090 0.000000 0.000000 0.000000 -16.751694 -7.521782 -39.287030 9.168687 16.914162 56.670475 3.114219 4.937532 -35.333655 1.189088 -6.919668 -19.477704 0.000000 0.000000 0.000000 24.749468 12.578649 -31.895442 -6.938818 -15.279012 48.640523 -2.008975 -9.006969 -31.256119 -0.415466 4.137232 -11.463079 2.118159 -1.021076 17.479202 1.866087 -0.604681 -2.703345 1.038441 -0.325319 -12.896101 -2.432946 0.356815 -11.344427 3.983243 1.975594 -9.184131 1.703393 1.501678 -1.053328 0.000000 0.000000 0.000000 14.670939 4.001639 -9.316025 23.652783 -34.794067 7.507877 0.721910 4.147550 31.480992 0.000000 0.000000 0.000000 -7.125000 0.000000 0.000000 -17.388897 -0.276573 -18.336166 0.000000 0.000000 0.000000 -17.724124 0.007667 -5.214177 -21.370629 -32.258173 -6.246769 -8.958709 6.876259 55.644474 0.000000 0.000000 0.000000 7.125000 0.000000 0.000000 77.855688 75.137199 -62.447570
8.964402 14.482983 23.189185 -176.932843 4.598063 191.739923 0.000000 0.000000 0.000000 -16.710701 -7.472812 -40.328296 9.451711 17.088630 57.637969 3.157478 4.580210 -35.406019 1.134299 -6.762153 -19.013448 0.000000 0.000000 0.000000 24.672895 12.525080 -32.868384 -7.217220 -15.510505 49.688434 -2.074123 -8.926891 -31.600942 -0.414699 4.133502 -11.452525 2.061744 -1.043041 17.934525 1.941412 -0.615143 -2.827609 1.171026 -0.320918 -13.309043 -2.421099 0.358796 -11.567141 3.881249 2.016965 -9.330337 1.670543 1.539054 -1.064545 0.000000 0.000000 0.000000 15.122946 4.258925 -10.220408 24.042482 -35.208281 7.731363 3.007693 2.864311 32.181365 0.000000 0.000000 0.000000 -7.125000 0.000000 0.000000 -16.146680 -1.146346 -17.153488 0.000000 0.000000 0.000000 -18.196939 -0.806273 -6.995592 -20.957526 -31.777260 -6.028278 -6.855378 4.458053 56.246593 0.000000 0.000000 0.000000 7.125000 0.000000 0.000000 80.473359 74.462246 -64.222247
8.961904 14.432085 23.196142 -176.975636 4.322260 192.031077 0.000000 0.000000 0.000000 -16.755761 -7.429950 -41.377640 9.745639 17.263112 58.633097 3.231668 3.989333 -35.547154 0.954459 -6.197135 -17.365144 0.000000 0.000000 0.000000 24.519025 12.453261 -33.869210 -7.512518 -15.747004 50.784344 -2.146847 -8.874981 -32.004093 -0.419254 4.155532 -11.514681 1.975882 -1.047843 18.419270 1.971493 -0.616595 -2.969163 1.269324 -0.312456 -13.761782 -2.387513 0.366184 -11.931098 3.790950 2.050493 -9.294385 1.639926 1.569802 -0.994452 0.000000 0.000000 0.000000 15.610487 4.592189 -11.199729 24.442291 -35.627296 7.963208 4.902732 1.602989 32.997853 0.000000 0.000000 0.000000 -7.125000 0.000000 0.000000 -15.134180 -2.117879 -16.248647 0.000000 0.000000 0.000000 -18.514496 -1.470549 -7.942087 -20.847943 -31.649932 -5.970156 -11.596613 6.278742 57.313124 0.000000 0.000000 0.000000 7.125000 0.000000 0.000000 86.385142 76.072693 -71.933984
8.958954 14.379184 23.202242 -177.050965 4.038889 192.326539 0.000000 0.000000 0.000000 -16.833353 -7.421292 -42.442669 10.051525 17.437738 59.659093 3.318114 3.288709 -35.714848 0.704026 -5.346207 -14.902428 0.000000 0.000000 0.000000 24.332856 12.379411 -34.891051 -7.821051 -15.984747 51.913512 -2.218972 -8.928363 -32.463767 -0.444411 4.275801 -11.854079 1.859985 -1.078567 18.899981 1.951969 -0.669100 -3.203162 1.348604 -0.327803 -14.323266 -2.176496 0.458060 -12.077676 3.654036 2.146837 -9.200117 1.562983 1.614420 -0.940313 0.000000 0.000000 0.000000 16.171477 5.235181 -12.170302 24.894312 -36.094522 8.228074 6.395548 0.310734 33.920767 0.000000 0.000000 0.000000 -7.125000 0.000000 0.000000 -14.364615 -3.176805 -15.622620 0.000000 0.000000 0.000000 -18.625157 -1.860749 -7.984073 -21.013593 -31.844133 -6.057099 -21.821517 11.598970 58.694293 0.000000 0.000000 0.000000 7.125000 0.000000 0.000000 93.366688 39.333303 -36.174168
8.956359 14.323274 23.207276 -177.058830 3.766168 192.628932 0.000000 0.000000 0.000000 -16.812471 -7.436562 -43.521445 10.367859 17.611195 60.710507 3.388287 2.721156 -35.860160 0.522387 -4.631908 -12.861543 0.000000 0.000000 0.000000 24.229658 12.346467 -35.892616 -8.136150 -16.218043 53.050946 -2.289054 -9.050555 -32.947808 -0.480591 4.445332 -12.332954 1.770779 -1.186544 19.060825 1.892145 -0.839103 -3.431354 1.396633 -0.401024 -14.692845 -1.629951 0.693061 -11.609847 3.387645 2.385391 -9.425148 1.381227 1.708562 -1.086803 0.000000 0.000000 0.000000 16.854073 6.115171 -12.936588 25.370739 -36.580454 8.509856 8.093503 -1.231476 35.039250 0.000000 0.000000 0.000000 -7.125000 0.000000 0.000000 -13.517132 -4.472506 -14.934494 0.000000 0.000000 0.000000 -18.586017 -2.310177 -8.574582 -20.944216 -31.763144 -6.020560 -26.373714 14.547765 59.247443 0.000000 0.000000 0.000000 7.125000 0.000000 0.000000 94.945020 -80.804020 104.260751
8.955943 14.264960 23.211108 -176.924708 3.520417 192.893010 0.000000 0.000000 0.000000 -16.619702 -7.389328 -44.540271 10.685169 17.777140 61.754409 3.422775 2.495648 -35.954462 0.511058 -4.582091 -12.720423 0.000000 0.000000 0.000000 24.284223 12.382788 -36.777737 -8.449295 -16.439469 54.164491 -2.373109 -8.998155 -33.396991 -0.458099 4.341783 -12.040219 2.299103 -1.321416 16.919457 1.554508 -1.041785 -2.317809 0.689203 -0.556055 -12.137198 -1.080551 0.700808 -11.130674 3.340245 2.599153 -11.208803 1.262350 1.870091 -1.738585 0.000000 0.000000 0.000000 18.011687 4.724802 -13.115694 25.562592 -36.773473 8.624484 10.863495 -3.131508 36.450195 0.000000 0.000000 0.000000 -7.125000 0.000000 0.000000 -12.156920 -6.238416 -13.699157 0.000000 0.000000 0.000000 -18.078020 -4.744864 -9.686461 -20.803846 -31.598616 -5.946835 -30.521661 17.660559 60.104323 0.000000 0.000000 0.000000 7.125000 0.000000 0.000000 108.656524 -81.419314 117.034651
8.955376 14.206422 23.214866 -176.840696 3.290222 193.096508 0.000000 0.000000 0.000000 -16.481531 -7.321750 -45.440928 10.995450 17.931940 62.765776 3.452477 2.255331 -36.020268 0.509003 -4.573111 -12.694931 0.000000 0.000000 0.000000 24.283966 12.385004 -37.602501 -8.762216 -16.651023 55.262255 -2.462400 -8.847780 -33.810125 -0.406513 4.090671 -11.332167 2.255572 -1.318297 17.100434 1.596287 -1.032808 -2.417903 0.764239 -0.549163 -12.351673 -0.919543 0.815507 -10.816864 3.157920 2.754503 -11.530735 1.173988 1.946508 -1.892706 0.000000 0.000000 0.000000 18.391620 5.144757 -13.788723 25.841726 -37.051604 8.792289 13.624287 -5.363165 37.758527 0.000000 0.000000 0.000000 -7.125000 0.000000 0.000000 -10.851754 -7.972465 -12.454545 0.000000 0.000000 0.000000 -18.141054 -5.648124 -10.671942 -20.574849 -31.328332 -5.827412 -35.417074 21.836661 60.954846 0.000000 0.000000 0.000000 7.125000 0.000000 0.000000 125.199103 -81.329850 132.533349
8.954561 14.152273 23.218672 -176.874516 3.093577 193.239078 0.000000 0.000000 0.000000 -16.465129 -7.263186 -46.199853 11.288256 18.072284 63.713019 3.493021 1.861870 -36.090093 0.482963 -4.455316 -12.361442 0.000000 0.000000 0.000000 24.166329 12.333607 -38.374440 -9.069941 -16.851111 56.329580 -2.556702 -8.742604 -34.271675 -0.373401 3.924023 -10.863137 2.143107 -1.268911 17.310261 1.638964 -0.976555 -2.430799 0.865258 -0.512452 -12.486089 -1.060814 0.868424 -10.876444 3.113147 2.866660 -11.653965 1.185424 2.019278 -1.927661 0.000000 0.000000 0.000000 18.606451 5.327809 -14.479868 25.919614 -37.129172 8.839090 15.910136 -7.708855 38.783168 0.000000 0.000000 0.000000 -7.125000 0.000000 0.000000 -9.799882 -9.392825 -11.416981 0.000000 0.000000 0.000000 -18.254222 -6.844727 -11.663775 -20.309212 -31.012546 -5.690064 -41.375114 26.843287 61.498708 0.000000 0.000000 0.000000 7.125000 0.000000 0.000000 142.094239 -80.568615 148.083588
8.953727 14.099006 23.221304 -176.967753 2.926827 193.360689 0.000000 0.000000 0.000000 -16.485619 -7.242079 -46.879519 11.568569 18.201358 64.613509 3.543391 1.356320 -36.175903 0.457113 -4.337019 -12.026801 0.000000 0.000000 0.000000 23.987799 12.270775 -39.123251 -9.376830 -17.042862 57.382490 -2.648697 -8.680140 -34.739452 -0.356449 3.835388 -10.614099 2.034361 -1.199351 17.395824 1.649171 -0.902294 -2.237313 0.914431 -0.466783 -12.312472 -1.286613 0.842383 -11.498017 3.106238 2.923256 -11.684183 1.229092 2.089494 -1.841964 0.000000 0.000000 0.000000 18.730218 5.069776 -14.989653 25.838424 -37.048521 8.790185 17.759374 -9.732577 39.515726 0.000000 0.000000 0.000000 -7.125000 0.000000 0.000000 -8.960277 -10.478589 -10.555500 0.000000 0.000000 0.000000 -18.324295 -8.556681 -12.798751 -19.962664 -30.596206 -5.512914 -47.459426 32.194072 61.672792 0.000000 0.000000 0.000000 7.125000 0.000000 0.000000 156.113577 -79.324151 160.658295
